<?xml version="1.0" encoding="UTF-8" standalone="no"?>
<!DOCTYPE svg PUBLIC "-//W3C//DTD SVG 1.1//EN"
 "http://www.w3.org/Graphics/SVG/1.1/DTD/svg11.dtd">
<!-- Generated by graphviz version 5.0.0 (20220707.1540)
 -->
<!-- Pages: 1 -->
<svg width="1005pt" height="1027pt"
 viewBox="0.00 0.00 1004.94 1026.64" xmlns="http://www.w3.org/2000/svg" xmlns:xlink="http://www.w3.org/1999/xlink">
<g id="graph0" class="graph" transform="scale(1 1) rotate(0) translate(4 1022.64)">
<polygon fill="white" stroke="transparent" points="-4,4 -4,-1022.64 1000.94,-1022.64 1000.94,4 -4,4"/>
<!-- &#45;1 -->
<g id="node1" class="node">
<title>&#45;1</title>
<polygon fill="lightgray" stroke="black" points="24,-108.64 0,-108.64 0,-90.64 24,-90.64 24,-108.64"/>
<text text-anchor="middle" x="12" y="-97.44" font-family="Times New Roman,serif" font-size="9.00">&#45;1</text>
</g>
<!-- 0 -->
<g id="node6" class="node">
<title>0</title>
<ellipse fill="lightblue" stroke="black" cx="335" cy="-14.85" rx="14.7" ry="14.7"/>
<text text-anchor="middle" x="335" y="-12.65" font-family="Times New Roman,serif" font-size="9.00">0</text>
</g>
<!-- &#45;1&#45;&gt;0 -->
<g id="edge1" class="edge">
<title>&#45;1&#45;&gt;0</title>
<path fill="none" stroke="green" stroke-width="0.99" d="M16.16,-90.43C20.51,-82.74 28.09,-71.56 38,-65.7 84.16,-38.38 247.11,-22.83 309.99,-17.73"/>
<polygon fill="green" stroke="green" stroke-width="0.99" points="310.49,-21.2 320.19,-16.93 309.94,-14.23 310.49,-21.2"/>
</g>
<!-- &#45;2 -->
<g id="node2" class="node">
<title>&#45;2</title>
<polygon fill="lightgray" stroke="black" points="179,-1018.64 155,-1018.64 155,-1000.64 179,-1000.64 179,-1018.64"/>
<text text-anchor="middle" x="167" y="-1007.44" font-family="Times New Roman,serif" font-size="9.00">&#45;2</text>
</g>
<!-- &#45;2&#45;&gt;0 -->
<g id="edge2" class="edge">
<title>&#45;2&#45;&gt;0</title>
<path fill="none" stroke="green" stroke-width="3.19" stroke-dasharray="1,5" d="M156.79,-1000.45C128.65,-976.89 52,-905.57 52,-827.82 52,-827.82 52,-827.82 52,-202.52 52,-134.01 68.94,-107.79 123,-65.7 179.12,-22 267.25,-15.61 310.03,-15.29"/>
<polygon fill="green" stroke="green" stroke-width="3.19" points="310.11,-18.79 320.12,-15.32 310.13,-11.79 310.11,-18.79"/>
</g>
<!-- 1067346 -->
<g id="node20" class="node">
<title>1067346</title>
<ellipse fill="white" stroke="black" cx="229" cy="-930.7" rx="33.88" ry="33.88"/>
<text text-anchor="middle" x="229" y="-928.5" font-family="Times New Roman,serif" font-size="9.00">1067346</text>
</g>
<!-- &#45;2&#45;&gt;1067346 -->
<g id="edge13" class="edge">
<title>&#45;2&#45;&gt;1067346</title>
<path fill="none" stroke="red" stroke-width="0.64" d="M173.64,-1000.4C180.41,-991.99 191.39,-978.37 201.79,-965.47"/>
<polygon fill="red" stroke="red" stroke-width="0.64" points="204.6,-967.56 208.14,-957.58 199.14,-963.17 204.6,-967.56"/>
</g>
<!-- 1066985 -->
<g id="node24" class="node">
<title>1066985</title>
<ellipse fill="white" stroke="black" cx="191" cy="-826.82" rx="33.88" ry="33.88"/>
<text text-anchor="middle" x="191" y="-824.62" font-family="Times New Roman,serif" font-size="9.00">1066985</text>
</g>
<!-- &#45;2&#45;&gt;1066985 -->
<g id="edge9" class="edge">
<title>&#45;2&#45;&gt;1066985</title>
<path fill="none" stroke="red" stroke-width="0.23" d="M168.09,-1000.4C171.08,-977.88 179.55,-914.12 185.3,-870.73"/>
<polygon fill="red" stroke="red" stroke-width="0.23" points="188.79,-871.09 186.63,-860.72 181.85,-870.17 188.79,-871.09"/>
</g>
<!-- &#45;3 -->
<g id="node3" class="node">
<title>&#45;3</title>
<polygon fill="lightgray" stroke="black" points="551,-1018.64 527,-1018.64 527,-1000.64 551,-1000.64 551,-1018.64"/>
<text text-anchor="middle" x="539" y="-1007.44" font-family="Times New Roman,serif" font-size="9.00">&#45;3</text>
</g>
<!-- &#45;3&#45;&gt;0 -->
<g id="edge3" class="edge">
<title>&#45;3&#45;&gt;0</title>
<path fill="none" stroke="red" stroke-width="3.8" stroke-dasharray="1,5" d="M551.23,-1007.47C593.01,-1003.31 729.56,-988.14 766,-964.64 828.64,-924.24 863,-902.36 863,-827.82 863,-827.82 863,-827.82 863,-202.52 863,-94.3 463.71,-33.13 359.59,-19.02"/>
<polygon fill="red" stroke="red" stroke-width="3.8" points="360.05,-15.55 349.67,-17.7 359.12,-22.49 360.05,-15.55"/>
</g>
<!-- 1065259 -->
<g id="node8" class="node">
<title>1065259</title>
<ellipse fill="white" stroke="black" cx="435" cy="-99.64" rx="33.88" ry="33.88"/>
<text text-anchor="middle" x="435" y="-97.44" font-family="Times New Roman,serif" font-size="9.00">1065259</text>
</g>
<!-- &#45;3&#45;&gt;1065259 -->
<g id="edge6" class="edge">
<title>&#45;3&#45;&gt;1065259</title>
<path fill="none" stroke="green" stroke-width="0.2" stroke-dasharray="1,5" d="M541.7,-1000.64C544.52,-991.9 548.83,-977.44 551,-964.64 584.34,-767.64 582,-715.96 582,-516.17 582,-516.17 582,-516.17 582,-410.29 582,-300.48 505.62,-188.09 462.98,-133.89"/>
<polygon fill="green" stroke="green" stroke-width="0.2" points="465.66,-131.65 456.69,-126.01 460.19,-136.01 465.66,-131.65"/>
</g>
<!-- 1067587 -->
<g id="node12" class="node">
<title>1067587</title>
<ellipse fill="white" stroke="black" cx="364" cy="-722.93" rx="33.88" ry="33.88"/>
<text text-anchor="middle" x="364" y="-720.73" font-family="Times New Roman,serif" font-size="9.00">1067587</text>
</g>
<!-- &#45;3&#45;&gt;1067587 -->
<g id="edge15" class="edge">
<title>&#45;3&#45;&gt;1067587</title>
<path fill="none" stroke="red" stroke-width="0.25" stroke-dasharray="1,5" d="M526.77,-1008.73C499.53,-1008.22 433.68,-1002.87 401,-964.64 353.74,-909.35 353.29,-819.67 358.08,-766.79"/>
<polygon fill="red" stroke="red" stroke-width="0.25" points="361.57,-767.03 359.09,-756.73 354.61,-766.32 361.57,-767.03"/>
</g>
<!-- 1069508 -->
<g id="node13" class="node">
<title>1069508</title>
<ellipse fill="white" stroke="black" cx="315" cy="-930.7" rx="33.88" ry="33.88"/>
<text text-anchor="middle" x="315" y="-928.5" font-family="Times New Roman,serif" font-size="9.00">1069508</text>
</g>
<!-- &#45;3&#45;&gt;1069508 -->
<g id="edge22" class="edge">
<title>&#45;3&#45;&gt;1069508</title>
<path fill="none" stroke="green" stroke-width="0.85" d="M526.99,-1007.14C497.81,-1003.18 421.3,-990.9 363,-964.64 358.62,-962.67 354.22,-960.29 349.94,-957.73"/>
<polygon fill="green" stroke="green" stroke-width="0.85" points="351.73,-954.72 341.41,-952.29 347.96,-960.62 351.73,-954.72"/>
</g>
<!-- 1076556 -->
<g id="node15" class="node">
<title>1076556</title>
<ellipse fill="white" stroke="black" cx="701" cy="-722.93" rx="33.88" ry="33.88"/>
<text text-anchor="middle" x="701" y="-720.73" font-family="Times New Roman,serif" font-size="9.00">1076556</text>
</g>
<!-- &#45;3&#45;&gt;1076556 -->
<g id="edge32" class="edge">
<title>&#45;3&#45;&gt;1076556</title>
<path fill="none" stroke="red" stroke-width="0.21" stroke-dasharray="1,5" d="M551.33,-1007.97C581.18,-1005.86 658.88,-997.38 713,-964.64 766.02,-932.56 783.88,-918.64 806,-860.76 816.77,-832.58 820.33,-819.42 806,-792.87 792.48,-767.83 765.46,-750.4 742.21,-739.33"/>
<polygon fill="red" stroke="red" stroke-width="0.21" points="743.41,-736.04 732.86,-735.12 740.54,-742.42 743.41,-736.04"/>
</g>
<!-- 1068749 -->
<g id="node16" class="node">
<title>1068749</title>
<ellipse fill="white" stroke="black" cx="465" cy="-619.05" rx="33.88" ry="33.88"/>
<text text-anchor="middle" x="465" y="-616.85" font-family="Times New Roman,serif" font-size="9.00">1068749</text>
</g>
<!-- &#45;3&#45;&gt;1068749 -->
<g id="edge16" class="edge">
<title>&#45;3&#45;&gt;1068749</title>
<path fill="none" stroke="red" stroke-width="0.12" d="M526.89,-1007.73C504.08,-1005.28 455.13,-996.4 434,-964.64 371.38,-870.5 417.61,-728.49 446.47,-659.91"/>
<polygon fill="red" stroke="red" stroke-width="0.12" points="449.85,-660.91 450.59,-650.34 443.42,-658.14 449.85,-660.91"/>
</g>
<!-- 1077584 -->
<g id="node19" class="node">
<title>1077584</title>
<ellipse fill="white" stroke="black" cx="670" cy="-930.7" rx="33.88" ry="33.88"/>
<text text-anchor="middle" x="670" y="-928.5" font-family="Times New Roman,serif" font-size="9.00">1077584</text>
</g>
<!-- &#45;3&#45;&gt;1077584 -->
<g id="edge38" class="edge">
<title>&#45;3&#45;&gt;1077584</title>
<path fill="none" stroke="green" stroke-width="0.14" d="M551.09,-1001.54C569.3,-990.84 604.55,-970.14 631.97,-954.04"/>
<polygon fill="green" stroke="green" stroke-width="0.14" points="634.08,-956.86 640.93,-948.77 630.53,-950.82 634.08,-956.86"/>
</g>
<!-- 1076062 -->
<g id="node21" class="node">
<title>1076062</title>
<ellipse fill="white" stroke="black" cx="477" cy="-930.7" rx="33.88" ry="33.88"/>
<text text-anchor="middle" x="477" y="-928.5" font-family="Times New Roman,serif" font-size="9.00">1076062</text>
</g>
<!-- &#45;3&#45;&gt;1076062 -->
<g id="edge30" class="edge">
<title>&#45;3&#45;&gt;1076062</title>
<path fill="none" stroke="green" stroke-width="0.11" stroke-dasharray="1,5" d="M532.36,-1000.4C525.59,-991.99 514.61,-978.37 504.21,-965.47"/>
<polygon fill="green" stroke="green" stroke-width="0.11" points="506.86,-963.17 497.86,-957.58 501.4,-967.56 506.86,-963.17"/>
</g>
<!-- 1067006 -->
<g id="node26" class="node">
<title>1067006</title>
<ellipse fill="white" stroke="black" cx="445" cy="-307.4" rx="33.88" ry="33.88"/>
<text text-anchor="middle" x="445" y="-305.2" font-family="Times New Roman,serif" font-size="9.00">1067006</text>
</g>
<!-- &#45;3&#45;&gt;1067006 -->
<g id="edge10" class="edge">
<title>&#45;3&#45;&gt;1067006</title>
<path fill="none" stroke="red" stroke-width="0.17" stroke-dasharray="1,5" d="M538.79,-1000.52C537.58,-957.49 530.83,-751.65 508,-585.11 495.2,-491.78 489.09,-468.68 466,-377.35 463.7,-368.26 460.95,-358.59 458.21,-349.45"/>
<polygon fill="red" stroke="red" stroke-width="0.17" points="461.53,-348.34 455.26,-339.8 454.84,-350.39 461.53,-348.34"/>
</g>
<!-- &#45;4 -->
<g id="node4" class="node">
<title>&#45;4</title>
<polygon fill="lightgray" stroke="black" points="945,-212.52 921,-212.52 921,-194.52 945,-194.52 945,-212.52"/>
<text text-anchor="middle" x="933" y="-201.32" font-family="Times New Roman,serif" font-size="9.00">&#45;4</text>
</g>
<!-- &#45;4&#45;&gt;0 -->
<g id="edge4" class="edge">
<title>&#45;4&#45;&gt;0</title>
<path fill="none" stroke="green" stroke-width="0.27" stroke-dasharray="1,5" d="M930.86,-194.38C923.6,-167.46 899.18,-82.11 877,-65.7 834.99,-34.62 460.89,-20.03 359.98,-16.64"/>
<polygon fill="green" stroke="green" stroke-width="0.27" points="359.93,-13.14 349.82,-16.3 359.7,-20.13 359.93,-13.14"/>
</g>
<!-- 1077326 -->
<g id="node17" class="node">
<title>1077326</title>
<ellipse fill="white" stroke="black" cx="963" cy="-99.64" rx="33.88" ry="33.88"/>
<text text-anchor="middle" x="963" y="-97.44" font-family="Times New Roman,serif" font-size="9.00">1077326</text>
</g>
<!-- &#45;4&#45;&gt;1077326 -->
<g id="edge36" class="edge">
<title>&#45;4&#45;&gt;1077326</title>
<path fill="none" stroke="red" stroke-width="0.72" d="M935.46,-194.18C938.79,-182.85 944.99,-161.79 950.67,-142.51"/>
<polygon fill="red" stroke="red" stroke-width="0.72" points="954.1,-143.24 953.57,-132.66 947.39,-141.26 954.1,-143.24"/>
</g>
<!-- &#45;5 -->
<g id="node5" class="node">
<title>&#45;5</title>
<polygon fill="lightgray" stroke="black" points="554,-420.29 530,-420.29 530,-402.29 554,-402.29 554,-420.29"/>
<text text-anchor="middle" x="542" y="-409.09" font-family="Times New Roman,serif" font-size="9.00">&#45;5</text>
</g>
<!-- &#45;5&#45;&gt;0 -->
<g id="edge5" class="edge">
<title>&#45;5&#45;&gt;0</title>
<path fill="none" stroke="red" stroke-width="0.23" stroke-dasharray="1,5" d="M543.19,-402.06C548.71,-360.38 567.98,-170.49 478,-65.7 447.99,-30.75 392.08,-20.29 359.78,-17.17"/>
<polygon fill="red" stroke="red" stroke-width="0.23" points="360.05,-13.68 349.8,-16.37 359.49,-20.66 360.05,-13.68"/>
</g>
<!-- &#45;5&#45;&gt;1067006 -->
<g id="edge12" class="edge">
<title>&#45;5&#45;&gt;1067006</title>
<path fill="none" stroke="red" stroke-width="0.21" d="M536.08,-402.19C530.99,-395.37 523.32,-385.46 516,-377.35 503.89,-363.93 489.75,-349.9 477.29,-338.03"/>
<polygon fill="red" stroke="red" stroke-width="0.21" points="479.45,-335.26 469.78,-330.94 474.65,-340.35 479.45,-335.26"/>
</g>
<!-- 1070218 -->
<g id="node7" class="node">
<title>1070218</title>
<ellipse fill="white" stroke="black" cx="364" cy="-515.17" rx="33.88" ry="33.88"/>
<text text-anchor="middle" x="364" y="-512.97" font-family="Times New Roman,serif" font-size="9.00">1070218</text>
</g>
<!-- 1350123 -->
<g id="node25" class="node">
<title>1350123</title>
<ellipse fill="white" stroke="black" cx="326" cy="-411.29" rx="33.88" ry="33.88"/>
<text text-anchor="middle" x="326" y="-409.09" font-family="Times New Roman,serif" font-size="9.00">1350123</text>
</g>
<!-- 1070218&#45;&gt;1350123 -->
<g id="edge47" class="edge">
<title>1070218&#45;&gt;1350123</title>
<path fill="none" stroke="red" stroke-width="0.33" d="M352.39,-483.05C348.82,-473.47 344.83,-462.78 341.06,-452.67"/>
<polygon fill="red" stroke="red" stroke-width="0.33" points="344.31,-451.36 337.54,-443.22 337.75,-453.81 344.31,-451.36"/>
</g>
<!-- 1070218&#45;&gt;1067006 -->
<g id="edge29" class="edge">
<title>1070218&#45;&gt;1067006</title>
<path fill="none" stroke="green" stroke-width="0.13" stroke-dasharray="1,5" d="M374,-482.56C383.11,-454.59 397.34,-412.82 412,-377.35 416.11,-367.4 420.93,-356.84 425.59,-347.05"/>
<polygon fill="green" stroke="green" stroke-width="0.13" points="428.79,-348.47 429.99,-337.95 422.49,-345.43 428.79,-348.47"/>
</g>
<!-- 1065259&#45;&gt;0 -->
<g id="edge7" class="edge">
<title>1065259&#45;&gt;0</title>
<path fill="none" stroke="red" stroke-width="0.75" stroke-dasharray="1,5" d="M409.25,-77.32C391.96,-63.01 369.58,-44.48 353.92,-31.52"/>
<polygon fill="red" stroke="red" stroke-width="0.75" points="355.93,-28.63 346,-24.95 351.47,-34.03 355.93,-28.63"/>
</g>
<!-- 1069744 -->
<g id="node9" class="node">
<title>1069744</title>
<ellipse fill="white" stroke="black" cx="277" cy="-826.82" rx="33.88" ry="33.88"/>
<text text-anchor="middle" x="277" y="-824.62" font-family="Times New Roman,serif" font-size="9.00">1069744</text>
</g>
<!-- 1069744&#45;&gt;1067587 -->
<g id="edge25" class="edge">
<title>1069744&#45;&gt;1067587</title>
<path fill="none" stroke="red" stroke-width="0.12" d="M298.73,-800.37C309.84,-787.36 323.5,-771.37 335.44,-757.38"/>
<polygon fill="red" stroke="red" stroke-width="0.12" points="338.41,-759.29 342.25,-749.41 333.09,-754.74 338.41,-759.29"/>
</g>
<!-- 1078071 -->
<g id="node10" class="node">
<title>1078071</title>
<ellipse fill="white" stroke="black" cx="202" cy="-722.93" rx="33.88" ry="33.88"/>
<text text-anchor="middle" x="202" y="-720.73" font-family="Times New Roman,serif" font-size="9.00">1078071</text>
</g>
<!-- 1070011 -->
<g id="node11" class="node">
<title>1070011</title>
<ellipse fill="white" stroke="black" cx="202" cy="-619.05" rx="33.88" ry="33.88"/>
<text text-anchor="middle" x="202" y="-616.85" font-family="Times New Roman,serif" font-size="9.00">1070011</text>
</g>
<!-- 1078071&#45;&gt;1070011 -->
<g id="edge41" class="edge">
<title>1078071&#45;&gt;1070011</title>
<path fill="none" stroke="green" stroke-width="0.26" d="M202,-688.85C202,-680.76 202,-671.97 202,-663.47"/>
<polygon fill="green" stroke="green" stroke-width="0.26" points="205.5,-663.31 202,-653.31 198.5,-663.31 205.5,-663.31"/>
</g>
<!-- 1070011&#45;&gt;0 -->
<g id="edge27" class="edge">
<title>1070011&#45;&gt;0</title>
<path fill="none" stroke="green" stroke-width="0.14" stroke-dasharray="1,5" d="M205.12,-584.94C208.68,-544.31 214,-473.3 214,-412.29 214,-412.29 214,-412.29 214,-202.52 214,-139.64 212,-115.8 250,-65.7 265.51,-45.25 292.04,-31.65 311.34,-23.89"/>
<polygon fill="green" stroke="green" stroke-width="0.14" points="312.82,-27.07 320.94,-20.27 310.35,-20.52 312.82,-27.07"/>
</g>
<!-- 1070011&#45;&gt;1070218 -->
<g id="edge34" class="edge">
<title>1070011&#45;&gt;1070218</title>
<path fill="none" stroke="green" stroke-width="0.25" d="M230.59,-600.07C257.43,-583.19 297.71,-557.86 326.99,-539.44"/>
<polygon fill="green" stroke="green" stroke-width="0.25" points="329.09,-542.26 335.7,-533.97 325.37,-536.33 329.09,-542.26"/>
</g>
<!-- 1067587&#45;&gt;0 -->
<g id="edge14" class="edge">
<title>1067587&#45;&gt;0</title>
<path fill="none" stroke="red" stroke-width="0.37" stroke-dasharray="1,5" d="M342.3,-696.58C312.89,-659.54 264,-587.26 264,-516.17 264,-516.17 264,-516.17 264,-202.52 264,-138.46 300.98,-69.63 321.57,-36.29"/>
<polygon fill="red" stroke="red" stroke-width="0.37" points="324.74,-37.81 327.13,-27.49 318.83,-34.07 324.74,-37.81"/>
</g>
<!-- 1067587&#45;&gt;1068749 -->
<g id="edge18" class="edge">
<title>1067587&#45;&gt;1068749</title>
<path fill="none" stroke="red" stroke-width="0.58" d="M387.43,-698.3C401.35,-684.26 419.17,-666.28 434.22,-651.1"/>
<polygon fill="red" stroke="red" stroke-width="0.58" points="436.8,-653.47 441.35,-643.91 431.83,-648.54 436.8,-653.47"/>
</g>
<!-- 1067587&#45;&gt;1067006 -->
<g id="edge21" class="edge">
<title>1067587&#45;&gt;1067006</title>
<path fill="none" stroke="green" stroke-width="0.14" d="M372.85,-689.95C382.19,-655.41 396.95,-598.65 407,-549.11 420.95,-480.35 432.77,-399.67 439.37,-351.36"/>
<polygon fill="green" stroke="green" stroke-width="0.14" points="442.86,-351.65 440.74,-341.27 435.93,-350.71 442.86,-351.65"/>
</g>
<!-- 1069508&#45;&gt;1069744 -->
<g id="edge24" class="edge">
<title>1069508&#45;&gt;1069744</title>
<path fill="none" stroke="green" stroke-width="0.99" d="M303.39,-898.58C299.82,-889 295.83,-878.31 292.06,-868.2"/>
<polygon fill="green" stroke="green" stroke-width="0.99" points="295.31,-866.89 288.54,-858.75 288.75,-869.34 295.31,-866.89"/>
</g>
<!-- 1069508&#45;&gt;1067587 -->
<g id="edge23" class="edge">
<title>1069508&#45;&gt;1067587</title>
<path fill="none" stroke="green" stroke-width="0.48" stroke-dasharray="1,5" d="M322.66,-897.55C331.08,-862.17 344.66,-805.15 353.94,-766.18"/>
<polygon fill="green" stroke="green" stroke-width="0.48" points="357.4,-766.74 356.32,-756.2 350.6,-765.11 357.4,-766.74"/>
</g>
<!-- 1069508&#45;&gt;1066985 -->
<g id="edge35" class="edge">
<title>1069508&#45;&gt;1066985</title>
<path fill="none" stroke="green" stroke-width="0.42" d="M289.01,-908.34C270.32,-892.99 244.96,-872.15 224.72,-855.52"/>
<polygon fill="green" stroke="green" stroke-width="0.42" points="226.91,-852.79 216.96,-849.15 222.46,-858.2 226.91,-852.79"/>
</g>
<!-- 1187530 -->
<g id="node14" class="node">
<title>1187530</title>
<ellipse fill="white" stroke="black" cx="639" cy="-826.82" rx="33.88" ry="33.88"/>
<text text-anchor="middle" x="639" y="-824.62" font-family="Times New Roman,serif" font-size="9.00">1187530</text>
</g>
<!-- 1187530&#45;&gt;1076556 -->
<g id="edge43" class="edge">
<title>1187530&#45;&gt;1076556</title>
<path fill="none" stroke="green" stroke-width="0.1" stroke-dasharray="1,5" d="M656.27,-797.44C663.07,-786.27 670.96,-773.29 678.22,-761.37"/>
<polygon fill="green" stroke="green" stroke-width="0.1" points="681.4,-762.88 683.61,-752.51 675.42,-759.24 681.4,-762.88"/>
</g>
<!-- 1076556&#45;&gt;0 -->
<g id="edge33" class="edge">
<title>1076556&#45;&gt;0</title>
<path fill="none" stroke="red" stroke-width="0.59" stroke-dasharray="1,5" d="M690.65,-690.25C678.51,-650.17 660,-578.82 660,-516.17 660,-516.17 660,-516.17 660,-202.52 660,-64.22 435.97,-26.89 359.91,-18.2"/>
<polygon fill="red" stroke="red" stroke-width="0.59" points="360.13,-14.71 349.81,-17.12 359.38,-21.67 360.13,-14.71"/>
</g>
<!-- 1068749&#45;&gt;1070218 -->
<g id="edge28" class="edge">
<title>1068749&#45;&gt;1070218</title>
<path fill="none" stroke="green" stroke-width="0.19" d="M441.57,-594.42C427.65,-580.38 409.83,-562.4 394.78,-547.22"/>
<polygon fill="green" stroke="green" stroke-width="0.19" points="397.17,-544.66 387.65,-540.02 392.2,-549.59 397.17,-544.66"/>
</g>
<!-- 1068749&#45;&gt;1067006 -->
<g id="edge17" class="edge">
<title>1068749&#45;&gt;1067006</title>
<path fill="none" stroke="green" stroke-width="0.21" stroke-dasharray="1,5" d="M462.86,-584.91C459.22,-528.57 451.83,-414.16 447.79,-351.62"/>
<polygon fill="green" stroke="green" stroke-width="0.21" points="451.26,-351.06 447.12,-341.3 444.28,-351.51 451.26,-351.06"/>
</g>
<!-- 1077326&#45;&gt;0 -->
<g id="edge37" class="edge">
<title>1077326&#45;&gt;0</title>
<path fill="none" stroke="green" stroke-width="0.49" stroke-dasharray="1,5" d="M937.18,-77.37C930.34,-72.77 922.71,-68.46 915,-65.7 810.32,-28.24 457.15,-18.35 359.95,-16.31"/>
<polygon fill="green" stroke="green" stroke-width="0.49" points="359.95,-12.81 349.88,-16.1 359.8,-19.8 359.95,-12.81"/>
</g>
<!-- 1068880 -->
<g id="node18" class="node">
<title>1068880</title>
<ellipse fill="white" stroke="black" cx="404" cy="-203.52" rx="33.88" ry="33.88"/>
<text text-anchor="middle" x="404" y="-201.32" font-family="Times New Roman,serif" font-size="9.00">1068880</text>
</g>
<!-- 1068880&#45;&gt;1065259 -->
<g id="edge20" class="edge">
<title>1068880&#45;&gt;1065259</title>
<path fill="none" stroke="green" stroke-width="0.5" d="M413.64,-170.84C416.41,-161.74 419.47,-151.67 422.39,-142.07"/>
<polygon fill="green" stroke="green" stroke-width="0.5" points="425.8,-142.88 425.37,-132.3 419.11,-140.85 425.8,-142.88"/>
</g>
<!-- 1077584&#45;&gt;1187530 -->
<g id="edge42" class="edge">
<title>1077584&#45;&gt;1187530</title>
<path fill="none" stroke="red" stroke-width="0.28" stroke-dasharray="1,5" d="M660.36,-898.02C657.59,-888.92 654.53,-878.85 651.61,-869.25"/>
<polygon fill="red" stroke="red" stroke-width="0.28" points="654.89,-868.02 648.63,-859.47 648.2,-870.06 654.89,-868.02"/>
</g>
<!-- 1077584&#45;&gt;1076556 -->
<g id="edge39" class="edge">
<title>1077584&#45;&gt;1076556</title>
<path fill="none" stroke="red" stroke-width="0.32" stroke-dasharray="1,5" d="M675.91,-897.12C677.93,-885.64 680.14,-872.64 682,-860.76 686.89,-829.49 691.79,-794.09 695.39,-767.14"/>
<polygon fill="red" stroke="red" stroke-width="0.32" points="698.9,-767.25 696.75,-756.88 691.96,-766.33 698.9,-767.25"/>
</g>
<!-- 1578212 -->
<g id="node22" class="node">
<title>1578212</title>
<ellipse fill="white" stroke="black" cx="763" cy="-826.82" rx="33.88" ry="33.88"/>
<text text-anchor="middle" x="763" y="-824.62" font-family="Times New Roman,serif" font-size="9.00">1578212</text>
</g>
<!-- 1077584&#45;&gt;1578212 -->
<g id="edge49" class="edge">
<title>1077584&#45;&gt;1578212</title>
<path fill="none" stroke="green" stroke-width="0.3" d="M692.51,-905.03C704.76,-891.62 720.06,-874.85 733.28,-860.38"/>
<polygon fill="green" stroke="green" stroke-width="0.3" points="736.22,-862.35 740.37,-852.6 731.05,-857.63 736.22,-862.35"/>
</g>
<!-- 1067346&#45;&gt;1069744 -->
<g id="edge46" class="edge">
<title>1067346&#45;&gt;1069744</title>
<path fill="none" stroke="green" stroke-width="0.51" d="M243.14,-899.68C247.93,-889.51 253.36,-878 258.44,-867.21"/>
<polygon fill="green" stroke="green" stroke-width="0.51" points="261.7,-868.51 262.79,-857.97 255.36,-865.52 261.7,-868.51"/>
</g>
<!-- 1076062&#45;&gt;1068749 -->
<g id="edge31" class="edge">
<title>1076062&#45;&gt;1068749</title>
<path fill="none" stroke="red" stroke-width="0.28" d="M475.72,-896.56C473.54,-840.37 469.12,-726.41 466.69,-663.76"/>
<polygon fill="red" stroke="red" stroke-width="0.28" points="470.18,-663.28 466.29,-653.42 463.18,-663.55 470.18,-663.28"/>
</g>
<!-- 1578212&#45;&gt;1076556 -->
<g id="edge50" class="edge">
<title>1578212&#45;&gt;1076556</title>
<path fill="none" stroke="red" stroke-width="0.18" d="M745.73,-797.44C738.93,-786.27 731.04,-773.29 723.78,-761.37"/>
<polygon fill="red" stroke="red" stroke-width="0.18" points="726.58,-759.24 718.39,-752.51 720.6,-762.88 726.58,-759.24"/>
</g>
<!-- 1187816 -->
<g id="node23" class="node">
<title>1187816</title>
<ellipse fill="white" stroke="black" cx="114" cy="-515.17" rx="33.88" ry="33.88"/>
<text text-anchor="middle" x="114" y="-512.97" font-family="Times New Roman,serif" font-size="9.00">1187816</text>
</g>
<!-- 1187816&#45;&gt;0 -->
<g id="edge45" class="edge">
<title>1187816&#45;&gt;0</title>
<path fill="none" stroke="red" stroke-width="0.56" d="M117.12,-481.06C120.68,-440.43 126,-369.42 126,-308.4 126,-308.4 126,-308.4 126,-202.52 126,-139.64 118.06,-110.68 162,-65.7 201.76,-25 272.45,-16.98 309.98,-15.74"/>
<polygon fill="red" stroke="red" stroke-width="0.56" points="310.13,-19.23 320.06,-15.54 309.99,-12.24 310.13,-19.23"/>
</g>
<!-- 1066985&#45;&gt;0 -->
<g id="edge8" class="edge">
<title>1066985&#45;&gt;0</title>
<path fill="none" stroke="green" stroke-width="0.25" stroke-dasharray="1,5" d="M174.19,-796.95C168.13,-784.97 162.04,-770.66 159,-756.87 125.94,-607.14 176,-565.62 176,-412.29 176,-412.29 176,-412.29 176,-202.52 176,-139.41 172.13,-112.92 214,-65.7 239.15,-37.34 282.92,-24.77 310.35,-19.46"/>
<polygon fill="green" stroke="green" stroke-width="0.25" points="311.08,-22.88 320.33,-17.7 309.87,-15.99 311.08,-22.88"/>
</g>
<!-- 1066985&#45;&gt;1078071 -->
<g id="edge40" class="edge">
<title>1066985&#45;&gt;1078071</title>
<path fill="none" stroke="green" stroke-width="0.24" d="M194.54,-793.02C195.43,-784.74 196.41,-775.73 197.35,-767.03"/>
<polygon fill="green" stroke="green" stroke-width="0.24" points="200.83,-767.34 198.43,-757.02 193.87,-766.58 200.83,-767.34"/>
</g>
<!-- 1066985&#45;&gt;1070011 -->
<g id="edge26" class="edge">
<title>1066985&#45;&gt;1070011</title>
<path fill="none" stroke="red" stroke-width="0.17" stroke-dasharray="1,5" d="M215.49,-802.72C226.81,-790.35 239.05,-774.12 245,-756.87 254.84,-728.35 253.3,-718 245,-688.99 241.54,-676.91 235.29,-664.9 228.6,-654.36"/>
<polygon fill="red" stroke="red" stroke-width="0.17" points="231.4,-652.25 222.93,-645.88 225.58,-656.14 231.4,-652.25"/>
</g>
<!-- 1066985&#45;&gt;1187816 -->
<g id="edge44" class="edge">
<title>1066985&#45;&gt;1187816</title>
<path fill="none" stroke="green" stroke-width="0.39" d="M164.36,-805.58C150.25,-793.21 134.19,-776.09 126,-756.87 98.43,-692.19 101.89,-608.71 107.51,-558.98"/>
<polygon fill="green" stroke="green" stroke-width="0.39" points="111.01,-559.25 108.74,-548.9 104.06,-558.4 111.01,-559.25"/>
</g>
<!-- 1066985&#45;&gt;1350123 -->
<g id="edge51" class="edge">
<title>1066985&#45;&gt;1350123</title>
<path fill="none" stroke="green" stroke-width="0.32" d="M216.52,-804.4C234.74,-788.57 257.05,-767.92 263,-756.87 290.8,-705.24 312.47,-535.86 321.46,-455.43"/>
<polygon fill="green" stroke="green" stroke-width="0.32" points="324.98,-455.48 322.6,-445.15 318.02,-454.71 324.98,-455.48"/>
</g>
<!-- 1350123&#45;&gt;1067006 -->
<g id="edge48" class="edge">
<title>1350123&#45;&gt;1067006</title>
<path fill="none" stroke="red" stroke-width="0.15" d="M351.53,-388.43C369.18,-373.32 392.82,-353.08 411.91,-336.73"/>
<polygon fill="red" stroke="red" stroke-width="0.15" points="414.19,-339.39 419.51,-330.22 409.64,-334.07 414.19,-339.39"/>
</g>
<!-- 1067006&#45;&gt;1065259 -->
<g id="edge11" class="edge">
<title>1067006&#45;&gt;1065259</title>
<path fill="none" stroke="red" stroke-width="0.85" stroke-dasharray="1,5" d="M447.34,-273.44C448.86,-245.68 450.06,-204.97 447,-169.58 446.26,-160.97 445,-151.82 443.57,-143.09"/>
<polygon fill="red" stroke="red" stroke-width="0.85" points="447,-142.36 441.84,-133.1 440.1,-143.56 447,-142.36"/>
</g>
<!-- 1067006&#45;&gt;1068880 -->
<g id="edge19" class="edge">
<title>1067006&#45;&gt;1068880</title>
<path fill="none" stroke="red" stroke-width="0.45" d="M432.59,-275.56C428.69,-265.88 424.34,-255.06 420.22,-244.83"/>
<polygon fill="red" stroke="red" stroke-width="0.45" points="423.35,-243.23 416.37,-235.26 416.86,-245.85 423.35,-243.23"/>
</g>
</g>
</svg>
