<?xml version="1.0" encoding="UTF-8" standalone="no"?>
<!DOCTYPE svg PUBLIC "-//W3C//DTD SVG 1.1//EN"
 "http://www.w3.org/Graphics/SVG/1.1/DTD/svg11.dtd">
<!-- Generated by graphviz version 2.43.0 (0)
 -->
<!-- Title: %3 Pages: 1 -->
<svg width="1942pt" height="1025pt"
 viewBox="0.00 0.00 1942.23 1025.22" xmlns="http://www.w3.org/2000/svg" xmlns:xlink="http://www.w3.org/1999/xlink">
<g id="graph0" class="graph" transform="scale(1 1) rotate(0) translate(4 1021.22)">
<title>%3</title>
<polygon fill="white" stroke="transparent" points="-4,4 -4,-1021.22 1938.23,-1021.22 1938.23,4 -4,4"/>
<!-- &#45;1 -->
<g id="node1" class="node">
<title>&#45;1</title>
<polygon fill="lightgray" stroke="black" points="730,-1017.22 704,-1017.22 704,-999.22 730,-999.22 730,-1017.22"/>
<text text-anchor="middle" x="717" y="-1006.02" font-family="Times,serif" font-size="9.00">&#45;1</text>
</g>
<!-- 0 -->
<g id="node6" class="node">
<title>0</title>
<ellipse fill="lightblue" stroke="black" cx="822" cy="-127.22" rx="16.03" ry="16.03"/>
<text text-anchor="middle" x="822" y="-125.02" font-family="Times,serif" font-size="9.00">0</text>
</g>
<!-- &#45;1&#45;&gt;0 -->
<g id="edge1" class="edge">
<title>&#45;1&#45;&gt;0</title>
<path fill="none" stroke="green" stroke-width="1.63" d="M703.91,-1005.69C623.33,-995.89 198,-938.95 198,-828.52 198,-828.52 198,-828.52 198,-331.15 198,-257.89 230.26,-234.27 293,-196.45 379.21,-144.49 700.48,-131.57 795.42,-128.86"/>
<polygon fill="green" stroke="green" stroke-width="1.63" points="795.7,-132.35 805.6,-128.58 795.51,-125.36 795.7,-132.35"/>
</g>
<!-- 275 -->
<g id="node10" class="node">
<title>275</title>
<ellipse fill="white" stroke="black" cx="145" cy="-434.62" rx="25" ry="25"/>
<text text-anchor="middle" x="145" y="-432.42" font-family="Times,serif" font-size="9.00">275</text>
</g>
<!-- &#45;1&#45;&gt;275 -->
<g id="edge8" class="edge">
<title>&#45;1&#45;&gt;275</title>
<path fill="none" stroke="red" stroke-width="0.21" stroke-dasharray="1,5" d="M703.9,-1007.05C625.9,-1005.9 224.54,-998.32 184,-963.22 137.55,-923.02 153,-889.95 153,-828.52 153,-828.52 153,-828.52 153,-638.56 153,-579 149.52,-509.69 147.15,-469.42"/>
<polygon fill="red" stroke="red" stroke-width="0.21" points="150.64,-469.13 146.54,-459.35 143.65,-469.55 150.64,-469.13"/>
</g>
<!-- 1069 -->
<g id="node17" class="node">
<title>1069</title>
<ellipse fill="white" stroke="black" cx="1490" cy="-28.99" rx="28.98" ry="28.98"/>
<text text-anchor="middle" x="1490" y="-26.79" font-family="Times,serif" font-size="9.00">1069</text>
</g>
<!-- &#45;1&#45;&gt;1069 -->
<g id="edge12" class="edge">
<title>&#45;1&#45;&gt;1069</title>
<path fill="none" stroke="green" stroke-width="0.46" stroke-dasharray="1,5" d="M730.04,-1006.83C813.65,-1004.27 1275.45,-989.1 1414,-963.22 1609.2,-926.77 1840,-1027.1 1840,-828.52 1840,-828.52 1840,-828.52 1840,-228.68 1840,-86.89 1620.07,-45.04 1528.89,-33.79"/>
<polygon fill="green" stroke="green" stroke-width="0.46" points="1529.28,-30.31 1518.94,-32.62 1528.46,-37.26 1529.28,-30.31"/>
</g>
<!-- 1971 -->
<g id="node18" class="node">
<title>1971</title>
<ellipse fill="white" stroke="black" cx="518" cy="-332.15" rx="28.98" ry="28.98"/>
<text text-anchor="middle" x="518" y="-329.95" font-family="Times,serif" font-size="9.00">1971</text>
</g>
<!-- &#45;1&#45;&gt;1971 -->
<g id="edge45" class="edge">
<title>&#45;1&#45;&gt;1971</title>
<path fill="none" stroke="green" stroke-width="0.5" d="M703.92,-1004.26C654.24,-992.15 480,-941.63 480,-828.52 480,-828.52 480,-828.52 480,-536.09 480,-477.11 495.7,-410.1 506.92,-369.76"/>
<polygon fill="green" stroke="green" stroke-width="0.5" points="510.3,-370.67 509.66,-360.1 503.56,-368.76 510.3,-370.67"/>
</g>
<!-- 6461 -->
<g id="node19" class="node">
<title>6461</title>
<ellipse fill="white" stroke="black" cx="736" cy="-827.52" rx="28.98" ry="28.98"/>
<text text-anchor="middle" x="736" y="-825.32" font-family="Times,serif" font-size="9.00">6461</text>
</g>
<!-- &#45;1&#45;&gt;6461 -->
<g id="edge37" class="edge">
<title>&#45;1&#45;&gt;6461</title>
<path fill="none" stroke="green" stroke-width="0.38" d="M717.87,-999.08C720.31,-976.06 727.4,-909.38 731.96,-866.54"/>
<polygon fill="green" stroke="green" stroke-width="0.38" points="735.45,-866.78 733.03,-856.46 728.49,-866.04 735.45,-866.78"/>
</g>
<!-- 21976 -->
<g id="node27" class="node">
<title>21976</title>
<ellipse fill="white" stroke="black" cx="778" cy="-929.99" rx="33.47" ry="33.47"/>
<text text-anchor="middle" x="778" y="-927.79" font-family="Times,serif" font-size="9.00">21976</text>
</g>
<!-- &#45;1&#45;&gt;21976 -->
<g id="edge65" class="edge">
<title>&#45;1&#45;&gt;21976</title>
<path fill="none" stroke="red" stroke-width="0.75" d="M723.53,-999.07C730.2,-990.73 741,-977.24 751.23,-964.45"/>
<polygon fill="red" stroke="red" stroke-width="0.75" points="753.97,-966.63 757.48,-956.63 748.5,-962.26 753.97,-966.63"/>
</g>
<!-- 22744 -->
<g id="node28" class="node">
<title>22744</title>
<ellipse fill="white" stroke="black" cx="1698" cy="-332.15" rx="33.47" ry="33.47"/>
<text text-anchor="middle" x="1698" y="-329.95" font-family="Times,serif" font-size="9.00">22744</text>
</g>
<!-- &#45;1&#45;&gt;22744 -->
<g id="edge72" class="edge">
<title>&#45;1&#45;&gt;22744</title>
<path fill="none" stroke="red" stroke-width="0.81" d="M730.13,-1006.35C848.4,-998.26 1726,-934.71 1726,-828.52 1726,-828.52 1726,-828.52 1726,-536.09 1726,-479.86 1715.32,-415.68 1707.15,-374.82"/>
<polygon fill="red" stroke="red" stroke-width="0.81" points="1710.57,-374.05 1705.14,-364.95 1703.71,-375.45 1710.57,-374.05"/>
</g>
<!-- 227 -->
<g id="node31" class="node">
<title>227</title>
<ellipse fill="white" stroke="black" cx="708" cy="-733.54" rx="25" ry="25"/>
<text text-anchor="middle" x="708" y="-731.34" font-family="Times,serif" font-size="9.00">227</text>
</g>
<!-- &#45;1&#45;&gt;227 -->
<g id="edge6" class="edge">
<title>&#45;1&#45;&gt;227</title>
<path fill="none" stroke="red" stroke-width="0.29" d="M715.27,-999.1C709.45,-970.85 691.36,-874.18 698,-794.29 698.71,-785.72 699.99,-776.53 701.4,-767.99"/>
<polygon fill="red" stroke="red" stroke-width="0.29" points="704.87,-768.43 703.15,-757.98 697.98,-767.23 704.87,-768.43"/>
</g>
<!-- 23916 -->
<g id="node36" class="node">
<title>23916</title>
<ellipse fill="white" stroke="black" cx="1901" cy="-827.52" rx="33.47" ry="33.47"/>
<text text-anchor="middle" x="1901" y="-825.32" font-family="Times,serif" font-size="9.00">23916</text>
</g>
<!-- &#45;1&#45;&gt;23916 -->
<g id="edge80" class="edge">
<title>&#45;1&#45;&gt;23916</title>
<path fill="none" stroke="red" stroke-width="0.12" d="M730.36,-1007.14C854.7,-1006.25 1806.5,-998.36 1854,-963.22 1882.71,-941.98 1893.99,-901.93 1898.37,-871"/>
<polygon fill="red" stroke="red" stroke-width="0.12" points="1901.86,-871.25 1899.6,-860.9 1894.91,-870.41 1901.86,-871.25"/>
</g>
<!-- &#45;2 -->
<g id="node2" class="node">
<title>&#45;2</title>
<polygon fill="lightgray" stroke="black" points="105,-742.54 79,-742.54 79,-724.54 105,-724.54 105,-742.54"/>
<text text-anchor="middle" x="92" y="-731.34" font-family="Times,serif" font-size="9.00">&#45;2</text>
</g>
<!-- &#45;2&#45;&gt;0 -->
<g id="edge2" class="edge">
<title>&#45;2&#45;&gt;0</title>
<path fill="none" stroke="green" stroke-width="0.27" d="M83.77,-724.34C73.24,-713.44 55.02,-693.15 44,-672.79 14.01,-617.41 0,-601.07 0,-538.09 0,-538.09 0,-538.09 0,-331.15 0,-265.43 7.42,-234.5 61,-196.45 122.08,-153.07 668,-133.12 795.47,-129.03"/>
<polygon fill="green" stroke="green" stroke-width="0.27" points="795.64,-132.52 805.53,-128.71 795.42,-125.53 795.64,-132.52"/>
</g>
<!-- 4117 -->
<g id="node11" class="node">
<title>4117</title>
<ellipse fill="white" stroke="black" cx="575" cy="-434.62" rx="28.98" ry="28.98"/>
<text text-anchor="middle" x="575" y="-432.42" font-family="Times,serif" font-size="9.00">4117</text>
</g>
<!-- &#45;2&#45;&gt;4117 -->
<g id="edge30" class="edge">
<title>&#45;2&#45;&gt;4117</title>
<path fill="none" stroke="red" stroke-width="0.49" stroke-dasharray="1,5" d="M105.06,-726.65C148.39,-706.9 290.89,-640.32 400,-570.32 453.93,-535.73 512.02,-488.9 545.86,-460.55"/>
<polygon fill="red" stroke="red" stroke-width="0.49" points="548.12,-463.23 553.51,-454.11 543.61,-457.87 548.12,-463.23"/>
</g>
<!-- 4291 -->
<g id="node20" class="node">
<title>4291</title>
<ellipse fill="white" stroke="black" cx="99" cy="-229.68" rx="28.98" ry="28.98"/>
<text text-anchor="middle" x="99" y="-227.48" font-family="Times,serif" font-size="9.00">4291</text>
</g>
<!-- &#45;2&#45;&gt;4291 -->
<g id="edge28" class="edge">
<title>&#45;2&#45;&gt;4291</title>
<path fill="none" stroke="green" stroke-width="0.16" d="M87.94,-724.24C75.38,-697.77 38,-612.72 38,-538.09 38,-538.09 38,-538.09 38,-433.62 38,-373.16 36.5,-355.8 57,-298.92 61.65,-286.01 68.95,-272.92 76.17,-261.7"/>
<polygon fill="green" stroke="green" stroke-width="0.16" points="79.24,-263.41 81.89,-253.15 73.43,-259.52 79.24,-263.41"/>
</g>
<!-- 23638 -->
<g id="node25" class="node">
<title>23638</title>
<ellipse fill="white" stroke="black" cx="419" cy="-639.56" rx="33.47" ry="33.47"/>
<text text-anchor="middle" x="419" y="-637.36" font-family="Times,serif" font-size="9.00">23638</text>
</g>
<!-- &#45;2&#45;&gt;23638 -->
<g id="edge77" class="edge">
<title>&#45;2&#45;&gt;23638</title>
<path fill="none" stroke="red" stroke-width="0.29" d="M105.1,-731.56C146.09,-728.13 274.95,-714.48 372,-672.79 376.2,-670.98 380.42,-668.78 384.52,-666.38"/>
<polygon fill="red" stroke="red" stroke-width="0.29" points="386.63,-669.18 393.21,-660.89 382.89,-663.27 386.63,-669.18"/>
</g>
<!-- 18928 -->
<g id="node37" class="node">
<title>18928</title>
<ellipse fill="white" stroke="black" cx="99" cy="-332.15" rx="33.47" ry="33.47"/>
<text text-anchor="middle" x="99" y="-329.95" font-family="Times,serif" font-size="9.00">18928</text>
</g>
<!-- &#45;2&#45;&gt;18928 -->
<g id="edge53" class="edge">
<title>&#45;2&#45;&gt;18928</title>
<path fill="none" stroke="green" stroke-width="0.34" d="M92.15,-724.2C92.93,-679.54 96.65,-467.37 98.26,-375.61"/>
<polygon fill="green" stroke="green" stroke-width="0.34" points="101.76,-375.61 98.43,-365.55 94.76,-375.49 101.76,-375.61"/>
</g>
<!-- &#45;3 -->
<g id="node3" class="node">
<title>&#45;3</title>
<polygon fill="lightgray" stroke="black" points="1588,-546.09 1562,-546.09 1562,-528.09 1588,-528.09 1588,-546.09"/>
<text text-anchor="middle" x="1575" y="-534.89" font-family="Times,serif" font-size="9.00">&#45;3</text>
</g>
<!-- &#45;3&#45;&gt;0 -->
<g id="edge3" class="edge">
<title>&#45;3&#45;&gt;0</title>
<path fill="none" stroke="red" stroke-width="0.16" d="M1561.73,-536.06C1523.35,-535.23 1410.97,-527.58 1349,-467.85 1303.09,-423.61 1304.83,-237.44 1256,-196.45 1193.6,-144.07 933.1,-131.6 848.6,-128.9"/>
<polygon fill="red" stroke="red" stroke-width="0.16" points="848.63,-125.4 838.53,-128.6 848.42,-132.4 848.63,-125.4"/>
</g>
<!-- &#45;3&#45;&gt;275 -->
<g id="edge16" class="edge">
<title>&#45;3&#45;&gt;275</title>
<path fill="none" stroke="red" stroke-width="0.35" d="M1561.79,-534.92C1509.58,-530.31 1312.52,-513.28 1150,-503.85 752.57,-480.8 647.85,-532.31 255,-467.85 228.55,-463.52 199.49,-454.82 177.88,-447.55"/>
<polygon fill="red" stroke="red" stroke-width="0.35" points="178.81,-444.17 168.22,-444.23 176.54,-450.79 178.81,-444.17"/>
</g>
<!-- 6984 -->
<g id="node21" class="node">
<title>6984</title>
<ellipse fill="white" stroke="black" cx="1609" cy="-332.15" rx="28.98" ry="28.98"/>
<text text-anchor="middle" x="1609" y="-329.95" font-family="Times,serif" font-size="9.00">6984</text>
</g>
<!-- &#45;3&#45;&gt;6984 -->
<g id="edge39" class="edge">
<title>&#45;3&#45;&gt;6984</title>
<path fill="none" stroke="green" stroke-width="0.11" stroke-dasharray="1,5" d="M1576.37,-527.88C1580.75,-501.78 1594.53,-419.55 1602.71,-370.68"/>
<polygon fill="green" stroke="green" stroke-width="0.11" points="1606.17,-371.24 1604.37,-360.8 1599.26,-370.08 1606.17,-371.24"/>
</g>
<!-- 1868 -->
<g id="node22" class="node">
<title>1868</title>
<ellipse fill="white" stroke="black" cx="1547" cy="-434.62" rx="28.98" ry="28.98"/>
<text text-anchor="middle" x="1547" y="-432.42" font-family="Times,serif" font-size="9.00">1868</text>
</g>
<!-- &#45;3&#45;&gt;1868 -->
<g id="edge25" class="edge">
<title>&#45;3&#45;&gt;1868</title>
<path fill="none" stroke="red" stroke-width="0.29" d="M1572.71,-527.87C1569.36,-515.84 1562.91,-492.69 1557.3,-472.6"/>
<polygon fill="red" stroke="red" stroke-width="0.29" points="1560.61,-471.43 1554.56,-462.74 1553.87,-473.31 1560.61,-471.43"/>
</g>
<!-- 5460 -->
<g id="node24" class="node">
<title>5460</title>
<ellipse fill="white" stroke="black" cx="1650" cy="-127.22" rx="28.98" ry="28.98"/>
<text text-anchor="middle" x="1650" y="-125.02" font-family="Times,serif" font-size="9.00">5460</text>
</g>
<!-- &#45;3&#45;&gt;5460 -->
<g id="edge36" class="edge">
<title>&#45;3&#45;&gt;5460</title>
<path fill="none" stroke="red" stroke-width="0.28" d="M1588.38,-532.85C1614.92,-525.74 1674.49,-506.24 1707,-467.85 1737.92,-431.34 1729.61,-412.09 1740,-365.39 1756.35,-291.88 1788.63,-262.79 1753,-196.45 1739,-170.38 1710.16,-152.59 1686.56,-141.72"/>
<polygon fill="red" stroke="red" stroke-width="0.28" points="1687.71,-138.41 1677.15,-137.63 1684.92,-144.83 1687.71,-138.41"/>
</g>
<!-- 21630 -->
<g id="node42" class="node">
<title>21630</title>
<ellipse fill="white" stroke="black" cx="1665" cy="-434.62" rx="33.47" ry="33.47"/>
<text text-anchor="middle" x="1665" y="-432.42" font-family="Times,serif" font-size="9.00">21630</text>
</g>
<!-- &#45;3&#45;&gt;21630 -->
<g id="edge63" class="edge">
<title>&#45;3&#45;&gt;21630</title>
<path fill="none" stroke="green" stroke-width="0.66" d="M1582.37,-527.87C1594.03,-514.84 1617.37,-488.79 1636.28,-467.68"/>
<polygon fill="green" stroke="green" stroke-width="0.66" points="1638.95,-469.94 1643.02,-460.16 1633.74,-465.27 1638.95,-469.94"/>
</g>
<!-- &#45;4 -->
<g id="node4" class="node">
<title>&#45;4</title>
<polygon fill="lightgray" stroke="black" points="800,-443.62 774,-443.62 774,-425.62 800,-425.62 800,-443.62"/>
<text text-anchor="middle" x="787" y="-432.42" font-family="Times,serif" font-size="9.00">&#45;4</text>
</g>
<!-- &#45;4&#45;&gt;0 -->
<g id="edge4" class="edge">
<title>&#45;4&#45;&gt;0</title>
<path fill="none" stroke="green" stroke-width="0.47" d="M787.94,-425.45C792.41,-386.44 811.67,-218.36 819.08,-153.7"/>
<polygon fill="green" stroke="green" stroke-width="0.47" points="822.58,-153.9 820.24,-143.56 815.63,-153.1 822.58,-153.9"/>
</g>
<!-- &#45;4&#45;&gt;1971 -->
<g id="edge57" class="edge">
<title>&#45;4&#45;&gt;1971</title>
<path fill="none" stroke="green" stroke-width="0.28" d="M773.66,-428.64C733.89,-413.79 615.16,-369.44 554.52,-346.79"/>
<polygon fill="green" stroke="green" stroke-width="0.28" points="555.55,-343.44 544.96,-343.22 553.1,-350 555.55,-343.44"/>
</g>
<!-- &#45;4&#45;&gt;5460 -->
<g id="edge33" class="edge">
<title>&#45;4&#45;&gt;5460</title>
<path fill="none" stroke="green" stroke-width="1.38" d="M800.12,-430.46C824.36,-424.63 877.84,-411.82 923,-401.39 994.02,-384.98 1014.89,-391.35 1083,-365.39 1227.43,-310.32 1243.49,-253.86 1387,-196.45 1464.03,-165.64 1559.36,-144.95 1611.48,-135.03"/>
<polygon fill="green" stroke="green" stroke-width="1.38" points="1612.43,-138.41 1621.62,-133.13 1611.14,-131.53 1612.43,-138.41"/>
</g>
<!-- &#45;5 -->
<g id="node5" class="node">
<title>&#45;5</title>
<polygon fill="lightgray" stroke="black" points="1325,-648.56 1299,-648.56 1299,-630.56 1325,-630.56 1325,-648.56"/>
<text text-anchor="middle" x="1312" y="-637.36" font-family="Times,serif" font-size="9.00">&#45;5</text>
</g>
<!-- &#45;5&#45;&gt;0 -->
<g id="edge5" class="edge">
<title>&#45;5&#45;&gt;0</title>
<path fill="none" stroke="green" stroke-width="0.32" stroke-dasharray="1,5" d="M1304.78,-630.33C1282.46,-604 1216,-518.64 1216,-435.62 1216,-435.62 1216,-435.62 1216,-331.15 1216,-165.33 936.77,-134.88 848.45,-129.4"/>
<polygon fill="green" stroke="green" stroke-width="0.32" points="848.61,-125.9 838.43,-128.83 848.22,-132.89 848.61,-125.9"/>
</g>
<!-- &#45;5&#45;&gt;1868 -->
<g id="edge17" class="edge">
<title>&#45;5&#45;&gt;1868</title>
<path fill="none" stroke="red" stroke-width="0.65" d="M1321.5,-630.35C1354.42,-601.93 1464.44,-506.91 1517.67,-460.95"/>
<polygon fill="red" stroke="red" stroke-width="0.65" points="1520.12,-463.46 1525.4,-454.28 1515.54,-458.16 1520.12,-463.46"/>
</g>
<!-- 18656 -->
<g id="node30" class="node">
<title>18656</title>
<ellipse fill="white" stroke="black" cx="1711" cy="-229.68" rx="33.47" ry="33.47"/>
<text text-anchor="middle" x="1711" y="-227.48" font-family="Times,serif" font-size="9.00">18656</text>
</g>
<!-- &#45;5&#45;&gt;18656 -->
<g id="edge79" class="edge">
<title>&#45;5&#45;&gt;18656</title>
<path fill="none" stroke="red" stroke-width="0.25" d="M1325.04,-637.79C1366.99,-634.83 1501.28,-621.68 1597,-570.32 1655.87,-538.73 1671.16,-524.24 1707,-467.85 1748.04,-403.29 1755.27,-373.88 1740,-298.92 1737.94,-288.8 1734.32,-278.32 1730.32,-268.7"/>
<polygon fill="red" stroke="red" stroke-width="0.25" points="1733.47,-267.16 1726.24,-259.41 1727.06,-269.97 1733.47,-267.16"/>
</g>
<!-- 615 -->
<g id="node33" class="node">
<title>615</title>
<ellipse fill="white" stroke="black" cx="995" cy="-537.09" rx="25" ry="25"/>
<text text-anchor="middle" x="995" y="-534.89" font-family="Times,serif" font-size="9.00">615</text>
</g>
<!-- &#45;5&#45;&gt;615 -->
<g id="edge10" class="edge">
<title>&#45;5&#45;&gt;615</title>
<path fill="none" stroke="green" stroke-width="0.45" stroke-dasharray="1,5" d="M1298.95,-635.35C1262.8,-626.34 1158.49,-599.57 1074,-570.32 1058.3,-564.89 1041.2,-558.03 1026.94,-552.04"/>
<polygon fill="green" stroke="green" stroke-width="0.45" points="1028.14,-548.75 1017.57,-548.06 1025.4,-555.19 1028.14,-548.75"/>
</g>
<!-- 7680 -->
<g id="node7" class="node">
<title>7680</title>
<ellipse fill="white" stroke="black" cx="362" cy="-537.09" rx="28.98" ry="28.98"/>
<text text-anchor="middle" x="362" y="-534.89" font-family="Times,serif" font-size="9.00">7680</text>
</g>
<!-- 7680&#45;&gt;275 -->
<g id="edge71" class="edge">
<title>7680&#45;&gt;275</title>
<path fill="none" stroke="green" stroke-width="0.47" d="M341.26,-516.32C335.9,-511.84 329.96,-507.38 324,-503.85 276.63,-475.86 215.73,-455.55 178.57,-444.68"/>
<polygon fill="green" stroke="green" stroke-width="0.47" points="179.32,-441.26 168.75,-441.87 177.4,-447.99 179.32,-441.26"/>
</g>
<!-- 19999 -->
<g id="node13" class="node">
<title>19999</title>
<ellipse fill="white" stroke="black" cx="419" cy="-434.62" rx="33.47" ry="33.47"/>
<text text-anchor="middle" x="419" y="-432.42" font-family="Times,serif" font-size="9.00">19999</text>
</g>
<!-- 7680&#45;&gt;19999 -->
<g id="edge59" class="edge">
<title>7680&#45;&gt;19999</title>
<path fill="none" stroke="green" stroke-width="0.18" d="M375.94,-511.51C382.58,-499.81 390.67,-485.56 398.03,-472.59"/>
<polygon fill="green" stroke="green" stroke-width="0.18" points="401.09,-474.28 402.98,-463.85 395,-470.82 401.09,-474.28"/>
</g>
<!-- 7680&#45;&gt;1971 -->
<g id="edge41" class="edge">
<title>7680&#45;&gt;1971</title>
<path fill="none" stroke="red" stroke-width="0.67" stroke-dasharray="1,5" d="M357.76,-508.34C354.83,-479.03 354.79,-432.8 377,-401.39 401.05,-367.38 446.79,-349.64 479.66,-340.88"/>
<polygon fill="red" stroke="red" stroke-width="0.67" points="480.56,-344.26 489.41,-338.44 478.86,-337.47 480.56,-344.26"/>
</g>
<!-- 17124 -->
<g id="node32" class="node">
<title>17124</title>
<ellipse fill="white" stroke="black" cx="297" cy="-434.62" rx="33.47" ry="33.47"/>
<text text-anchor="middle" x="297" y="-432.42" font-family="Times,serif" font-size="9.00">17124</text>
</g>
<!-- 7680&#45;&gt;17124 -->
<g id="edge42" class="edge">
<title>7680&#45;&gt;17124</title>
<path fill="none" stroke="red" stroke-width="0.56" d="M346.6,-512.28C338.77,-500.19 329.1,-485.24 320.39,-471.77"/>
<polygon fill="red" stroke="red" stroke-width="0.56" points="323.2,-469.67 314.82,-463.17 317.32,-473.47 323.2,-469.67"/>
</g>
<!-- 18434 -->
<g id="node8" class="node">
<title>18434</title>
<ellipse fill="white" stroke="black" cx="1275" cy="-127.22" rx="33.47" ry="33.47"/>
<text text-anchor="middle" x="1275" y="-125.02" font-family="Times,serif" font-size="9.00">18434</text>
</g>
<!-- 18434&#45;&gt;1069 -->
<g id="edge49" class="edge">
<title>18434&#45;&gt;1069</title>
<path fill="none" stroke="green" stroke-width="0.15" stroke-dasharray="1,5" d="M1305.35,-112.63C1344.65,-95.04 1413.04,-64.44 1454.64,-45.82"/>
<polygon fill="green" stroke="green" stroke-width="0.15" points="1456.16,-48.97 1463.85,-41.69 1453.3,-42.58 1456.16,-48.97"/>
</g>
<!-- 1289 -->
<g id="node9" class="node">
<title>1289</title>
<ellipse fill="white" stroke="black" cx="708" cy="-639.56" rx="28.98" ry="28.98"/>
<text text-anchor="middle" x="708" y="-637.36" font-family="Times,serif" font-size="9.00">1289</text>
</g>
<!-- 1289&#45;&gt;0 -->
<g id="edge15" class="edge">
<title>1289&#45;&gt;0</title>
<path fill="none" stroke="red" stroke-width="0.13" d="M705.4,-610.48C697.96,-524.73 679.56,-267.75 719,-196.45 735.79,-166.1 772.47,-146.86 797.21,-136.81"/>
<polygon fill="red" stroke="red" stroke-width="0.13" points="798.6,-140.03 806.67,-133.18 796.08,-133.5 798.6,-140.03"/>
</g>
<!-- 1289&#45;&gt;1971 -->
<g id="edge22" class="edge">
<title>1289&#45;&gt;1971</title>
<path fill="none" stroke="red" stroke-width="0.26" d="M681.54,-626.68C657.58,-614.95 622.4,-595.18 598,-570.32 560.87,-532.51 554.6,-517.85 537,-467.85 525.94,-436.45 521.3,-398.78 519.36,-371.27"/>
<polygon fill="red" stroke="red" stroke-width="0.26" points="522.85,-371.02 518.74,-361.26 515.87,-371.46 522.85,-371.02"/>
</g>
<!-- 1289&#45;&gt;615 -->
<g id="edge18" class="edge">
<title>1289&#45;&gt;615</title>
<path fill="none" stroke="red" stroke-width="0.13" d="M735.26,-629.01C788.19,-610.49 904.69,-569.7 961.94,-549.66"/>
<polygon fill="red" stroke="red" stroke-width="0.13" points="963.3,-552.89 971.58,-546.29 960.99,-546.29 963.3,-552.89"/>
</g>
<!-- 19435 -->
<g id="node35" class="node">
<title>19435</title>
<ellipse fill="white" stroke="black" cx="761" cy="-229.68" rx="33.47" ry="33.47"/>
<text text-anchor="middle" x="761" y="-227.48" font-family="Times,serif" font-size="9.00">19435</text>
</g>
<!-- 1289&#45;&gt;19435 -->
<g id="edge55" class="edge">
<title>1289&#45;&gt;19435</title>
<path fill="none" stroke="red" stroke-width="0.45" d="M714.21,-611.1C716.86,-598.69 719.85,-583.82 722,-570.32 738.98,-464 751.48,-337.82 757.32,-273.31"/>
<polygon fill="red" stroke="red" stroke-width="0.45" points="760.83,-273.4 758.23,-263.13 753.85,-272.77 760.83,-273.4"/>
</g>
<!-- 23034 -->
<g id="node41" class="node">
<title>23034</title>
<ellipse fill="white" stroke="black" cx="640" cy="-537.09" rx="33.47" ry="33.47"/>
<text text-anchor="middle" x="640" y="-534.89" font-family="Times,serif" font-size="9.00">23034</text>
</g>
<!-- 1289&#45;&gt;23034 -->
<g id="edge73" class="edge">
<title>1289&#45;&gt;23034</title>
<path fill="none" stroke="red" stroke-width="0.19" d="M692.06,-615C683.67,-602.61 673.22,-587.17 663.88,-573.38"/>
<polygon fill="red" stroke="red" stroke-width="0.19" points="666.75,-571.37 658.25,-565.05 660.95,-575.29 666.75,-571.37"/>
</g>
<!-- 275&#45;&gt;0 -->
<g id="edge9" class="edge">
<title>275&#45;&gt;0</title>
<path fill="none" stroke="red" stroke-width="0.43" stroke-dasharray="1,5" d="M145.41,-409.47C146.86,-355.04 153.52,-225.26 184,-196.45 229.2,-153.74 680.95,-133.62 795.64,-129.18"/>
<polygon fill="red" stroke="red" stroke-width="0.43" points="795.8,-132.68 805.66,-128.8 795.53,-125.68 795.8,-132.68"/>
</g>
<!-- 275&#45;&gt;18928 -->
<g id="edge87" class="edge">
<title>275&#45;&gt;18928</title>
<path fill="none" stroke="green" stroke-width="0.21" d="M135.02,-411.82C129.69,-400.19 122.98,-385.53 116.8,-372.03"/>
<polygon fill="green" stroke="green" stroke-width="0.21" points="119.97,-370.55 112.63,-362.91 113.61,-373.46 119.97,-370.55"/>
</g>
<!-- 2329 -->
<g id="node12" class="node">
<title>2329</title>
<ellipse fill="white" stroke="black" cx="879" cy="-229.68" rx="28.98" ry="28.98"/>
<text text-anchor="middle" x="879" y="-227.48" font-family="Times,serif" font-size="9.00">2329</text>
</g>
<!-- 2329&#45;&gt;0 -->
<g id="edge21" class="edge">
<title>2329&#45;&gt;0</title>
<path fill="none" stroke="green" stroke-width="0.77" d="M865.06,-204.11C855.83,-187.85 843.82,-166.68 834.83,-150.84"/>
<polygon fill="green" stroke="green" stroke-width="0.77" points="837.66,-148.72 829.68,-141.75 831.57,-152.18 837.66,-148.72"/>
</g>
<!-- 19999&#45;&gt;1971 -->
<g id="edge60" class="edge">
<title>19999&#45;&gt;1971</title>
<path fill="none" stroke="green" stroke-width="0.36" d="M441.96,-410.32C456.49,-395.57 475.35,-376.43 490.65,-360.9"/>
<polygon fill="green" stroke="green" stroke-width="0.36" points="493.32,-363.18 497.85,-353.61 488.33,-358.27 493.32,-363.18"/>
</g>
<!-- 23328 -->
<g id="node14" class="node">
<title>23328</title>
<ellipse fill="white" stroke="black" cx="965" cy="-434.62" rx="33.47" ry="33.47"/>
<text text-anchor="middle" x="965" y="-432.42" font-family="Times,serif" font-size="9.00">23328</text>
</g>
<!-- 22487 -->
<g id="node26" class="node">
<title>22487</title>
<ellipse fill="white" stroke="black" cx="919" cy="-332.15" rx="33.47" ry="33.47"/>
<text text-anchor="middle" x="919" y="-329.95" font-family="Times,serif" font-size="9.00">22487</text>
</g>
<!-- 23328&#45;&gt;22487 -->
<g id="edge76" class="edge">
<title>23328&#45;&gt;22487</title>
<path fill="none" stroke="green" stroke-width="0.59" d="M951.45,-404.02C946.81,-393.9 941.56,-382.43 936.66,-371.72"/>
<polygon fill="green" stroke="green" stroke-width="0.59" points="939.8,-370.18 932.46,-362.54 933.44,-373.09 939.8,-370.18"/>
</g>
<!-- 21413 -->
<g id="node15" class="node">
<title>21413</title>
<ellipse fill="white" stroke="black" cx="1429" cy="-332.15" rx="33.47" ry="33.47"/>
<text text-anchor="middle" x="1429" y="-329.95" font-family="Times,serif" font-size="9.00">21413</text>
</g>
<!-- 19665 -->
<g id="node23" class="node">
<title>19665</title>
<ellipse fill="white" stroke="black" cx="1429" cy="-229.68" rx="33.47" ry="33.47"/>
<text text-anchor="middle" x="1429" y="-227.48" font-family="Times,serif" font-size="9.00">19665</text>
</g>
<!-- 21413&#45;&gt;19665 -->
<g id="edge62" class="edge">
<title>21413&#45;&gt;19665</title>
<path fill="none" stroke="green" stroke-width="1.1" d="M1429,-298.81C1429,-290.65 1429,-281.77 1429,-273.2"/>
<polygon fill="green" stroke="green" stroke-width="1.1" points="1432.5,-272.97 1429,-262.97 1425.5,-272.97 1432.5,-272.97"/>
</g>
<!-- 5927 -->
<g id="node16" class="node">
<title>5927</title>
<ellipse fill="white" stroke="black" cx="1112" cy="-537.09" rx="28.98" ry="28.98"/>
<text text-anchor="middle" x="1112" y="-534.89" font-family="Times,serif" font-size="9.00">5927</text>
</g>
<!-- 5927&#45;&gt;0 -->
<g id="edge32" class="edge">
<title>5927&#45;&gt;0</title>
<path fill="none" stroke="red" stroke-width="0.11" d="M1114.64,-508.07C1119.17,-441.76 1120.06,-274.91 1025,-196.45 972.09,-152.78 890,-136.62 848.27,-130.99"/>
<polygon fill="red" stroke="red" stroke-width="0.11" points="848.46,-127.49 838.1,-129.72 847.59,-134.43 848.46,-127.49"/>
</g>
<!-- 17393 -->
<g id="node38" class="node">
<title>17393</title>
<ellipse fill="white" stroke="black" cx="1041" cy="-332.15" rx="33.47" ry="33.47"/>
<text text-anchor="middle" x="1041" y="-329.95" font-family="Times,serif" font-size="9.00">17393</text>
</g>
<!-- 5927&#45;&gt;17393 -->
<g id="edge43" class="edge">
<title>5927&#45;&gt;17393</title>
<path fill="none" stroke="green" stroke-width="0.13" stroke-dasharray="1,5" d="M1102.72,-509.56C1090.56,-474.82 1069.15,-413.6 1055.01,-373.21"/>
<polygon fill="green" stroke="green" stroke-width="0.13" points="1058.28,-371.95 1051.68,-363.66 1051.67,-374.26 1058.28,-371.95"/>
</g>
<!-- 2687 -->
<g id="node43" class="node">
<title>2687</title>
<ellipse fill="white" stroke="black" cx="1273" cy="-434.62" rx="28.98" ry="28.98"/>
<text text-anchor="middle" x="1273" y="-432.42" font-family="Times,serif" font-size="9.00">2687</text>
</g>
<!-- 5927&#45;&gt;2687 -->
<g id="edge50" class="edge">
<title>5927&#45;&gt;2687</title>
<path fill="none" stroke="green" stroke-width="0.26" stroke-dasharray="1,5" d="M1136.45,-520.83C1164.15,-503.54 1209.44,-475.29 1240.19,-456.09"/>
<polygon fill="green" stroke="green" stroke-width="0.26" points="1242.21,-458.96 1248.84,-450.69 1238.51,-453.02 1242.21,-458.96"/>
</g>
<!-- 6461&#45;&gt;227 -->
<g id="edge38" class="edge">
<title>6461&#45;&gt;227</title>
<path fill="none" stroke="green" stroke-width="0.14" d="M727.75,-799.42C724.67,-789.3 721.14,-777.7 717.92,-767.14"/>
<polygon fill="green" stroke="green" stroke-width="0.14" points="721.22,-765.96 714.96,-757.41 714.53,-768 721.22,-765.96"/>
</g>
<!-- 4291&#45;&gt;0 -->
<g id="edge29" class="edge">
<title>4291&#45;&gt;0</title>
<path fill="none" stroke="red" stroke-width="0.27" d="M121.15,-210.14C128.61,-204.84 137.27,-199.65 146,-196.45 268.75,-151.52 685.66,-133.24 795.37,-129.15"/>
<polygon fill="red" stroke="red" stroke-width="0.27" points="795.69,-132.64 805.56,-128.77 795.44,-125.64 795.69,-132.64"/>
</g>
<!-- 6984&#45;&gt;5460 -->
<g id="edge40" class="edge">
<title>6984&#45;&gt;5460</title>
<path fill="none" stroke="red" stroke-width="0.46" stroke-dasharray="1,5" d="M1618.75,-304.55C1623.03,-292.05 1627.79,-276.87 1631,-262.92 1638.38,-230.81 1643.36,-193.71 1646.36,-166.58"/>
<polygon fill="red" stroke="red" stroke-width="0.46" points="1649.87,-166.65 1647.45,-156.34 1642.91,-165.91 1649.87,-166.65"/>
</g>
<!-- 6984&#45;&gt;18656 -->
<g id="edge51" class="edge">
<title>6984&#45;&gt;18656</title>
<path fill="none" stroke="green" stroke-width="0.43" d="M1629.15,-311.3C1643.75,-296.92 1663.76,-277.22 1680.33,-260.89"/>
<polygon fill="green" stroke="green" stroke-width="0.43" points="1683.01,-263.17 1687.68,-253.66 1678.1,-258.18 1683.01,-263.17"/>
</g>
<!-- 18161 -->
<g id="node39" class="node">
<title>18161</title>
<ellipse fill="white" stroke="black" cx="1589" cy="-229.68" rx="33.47" ry="33.47"/>
<text text-anchor="middle" x="1589" y="-227.48" font-family="Times,serif" font-size="9.00">18161</text>
</g>
<!-- 6984&#45;&gt;18161 -->
<g id="edge46" class="edge">
<title>6984&#45;&gt;18161</title>
<path fill="none" stroke="green" stroke-width="0.12" d="M1603.48,-303.43C1601.57,-293.84 1599.39,-282.86 1597.3,-272.39"/>
<polygon fill="green" stroke="green" stroke-width="0.12" points="1600.73,-271.7 1595.35,-262.57 1593.87,-273.06 1600.73,-271.7"/>
</g>
<!-- 6235 -->
<g id="node29" class="node">
<title>6235</title>
<ellipse fill="white" stroke="black" cx="1429" cy="-127.22" rx="28.98" ry="28.98"/>
<text text-anchor="middle" x="1429" y="-125.02" font-family="Times,serif" font-size="9.00">6235</text>
</g>
<!-- 19665&#45;&gt;6235 -->
<g id="edge58" class="edge">
<title>19665&#45;&gt;6235</title>
<path fill="none" stroke="green" stroke-width="0.56" d="M1429,-196.34C1429,-186.91 1429,-176.5 1429,-166.72"/>
<polygon fill="green" stroke="green" stroke-width="0.56" points="1432.5,-166.44 1429,-156.44 1425.5,-166.44 1432.5,-166.44"/>
</g>
<!-- 23638&#45;&gt;7680 -->
<g id="edge78" class="edge">
<title>23638&#45;&gt;7680</title>
<path fill="none" stroke="red" stroke-width="0.72" d="M402.97,-610.3C396.13,-598.25 388.11,-584.1 380.98,-571.54"/>
<polygon fill="red" stroke="red" stroke-width="0.72" points="383.95,-569.69 375.97,-562.72 377.86,-573.14 383.95,-569.69"/>
</g>
<!-- 23638&#45;&gt;23034 -->
<g id="edge84" class="edge">
<title>23638&#45;&gt;23034</title>
<path fill="none" stroke="green" stroke-width="1.24" d="M449.27,-624.8C488.61,-606.91 557.4,-575.64 600.73,-555.94"/>
<polygon fill="green" stroke="green" stroke-width="1.24" points="602.44,-559.01 610.1,-551.68 599.55,-552.63 602.44,-559.01"/>
</g>
<!-- 22487&#45;&gt;2329 -->
<g id="edge70" class="edge">
<title>22487&#45;&gt;2329</title>
<path fill="none" stroke="red" stroke-width="0.29" d="M907,-301.01C902.69,-290.19 897.79,-277.88 893.31,-266.62"/>
<polygon fill="red" stroke="red" stroke-width="0.29" points="896.45,-265.06 889.5,-257.06 889.95,-267.64 896.45,-265.06"/>
</g>
<!-- 21976&#45;&gt;6461 -->
<g id="edge66" class="edge">
<title>21976&#45;&gt;6461</title>
<path fill="none" stroke="green" stroke-width="0.11" d="M765.51,-899.12C760.9,-888.09 755.63,-875.49 750.84,-864.02"/>
<polygon fill="green" stroke="green" stroke-width="0.11" points="754.03,-862.58 746.94,-854.7 747.57,-865.28 754.03,-862.58"/>
</g>
<!-- 6235&#45;&gt;1069 -->
<g id="edge35" class="edge">
<title>6235&#45;&gt;1069</title>
<path fill="none" stroke="green" stroke-width="0.25" d="M1444.08,-102.43C1451.7,-90.4 1461.07,-75.62 1469.36,-62.55"/>
<polygon fill="green" stroke="green" stroke-width="0.25" points="1472.49,-64.16 1474.88,-53.84 1466.57,-60.41 1472.49,-64.16"/>
</g>
<!-- 18656&#45;&gt;5460 -->
<g id="edge52" class="edge">
<title>18656&#45;&gt;5460</title>
<path fill="none" stroke="green" stroke-width="0.41" d="M1694.17,-200.97C1686.66,-188.6 1677.76,-173.94 1669.93,-161.03"/>
<polygon fill="green" stroke="green" stroke-width="0.41" points="1672.88,-159.16 1664.7,-152.43 1666.9,-162.79 1672.88,-159.16"/>
</g>
<!-- 227&#45;&gt;0 -->
<g id="edge7" class="edge">
<title>227&#45;&gt;0</title>
<path fill="none" stroke="red" stroke-width="0.58" stroke-dasharray="1,5" d="M682.95,-732.5C625.77,-731.47 482.48,-723.6 377,-672.79 298.92,-635.18 236,-624.76 236,-538.09 236,-538.09 236,-538.09 236,-331.15 236,-210.95 681.84,-146.04 795.75,-131.42"/>
<polygon fill="red" stroke="red" stroke-width="0.58" points="796.23,-134.89 805.72,-130.16 795.36,-127.94 796.23,-134.89"/>
</g>
<!-- 227&#45;&gt;1289 -->
<g id="edge14" class="edge">
<title>227&#45;&gt;1289</title>
<path fill="none" stroke="green" stroke-width="0.43" d="M708,-708.37C708,-699.37 708,-688.9 708,-678.93"/>
<polygon fill="green" stroke="green" stroke-width="0.43" points="711.5,-678.8 708,-668.8 704.5,-678.8 711.5,-678.8"/>
</g>
<!-- 227&#45;&gt;5927 -->
<g id="edge31" class="edge">
<title>227&#45;&gt;5927</title>
<path fill="none" stroke="red" stroke-width="0.51" d="M730.01,-721.95C796.46,-689.96 995.51,-594.16 1076.82,-555.02"/>
<polygon fill="red" stroke="red" stroke-width="0.51" points="1078.64,-558.03 1086.13,-550.54 1075.6,-551.72 1078.64,-558.03"/>
</g>
<!-- 615&#45;&gt;0 -->
<g id="edge11" class="edge">
<title>615&#45;&gt;0</title>
<path fill="none" stroke="red" stroke-width="0.77" stroke-dasharray="1,5" d="M1001.15,-512.97C1007.4,-485.94 1015.1,-439.99 1007,-401.39 996.78,-352.71 948.31,-235.1 917,-196.45 897.16,-171.96 866.45,-152.08 845.35,-140.23"/>
<polygon fill="red" stroke="red" stroke-width="0.77" points="846.86,-137.06 836.4,-135.36 843.51,-143.21 846.86,-137.06"/>
</g>
<!-- 615&#45;&gt;18434 -->
<g id="edge48" class="edge">
<title>615&#45;&gt;18434</title>
<path fill="none" stroke="green" stroke-width="0.54" stroke-dasharray="1,5" d="M1018.3,-527.98C1044.95,-517.67 1088.45,-497.57 1116,-467.85 1198.69,-378.66 1245.37,-238.78 1264.56,-169.69"/>
<polygon fill="green" stroke="green" stroke-width="0.54" points="1267.94,-170.59 1267.19,-160.02 1261.18,-168.75 1267.94,-170.59"/>
</g>
<!-- 615&#45;&gt;4117 -->
<g id="edge27" class="edge">
<title>615&#45;&gt;4117</title>
<path fill="none" stroke="green" stroke-width="0.24" d="M970.38,-532.69C913.98,-524.57 771.39,-502.12 656,-467.85 640.79,-463.34 624.46,-457.12 610.47,-451.34"/>
<polygon fill="green" stroke="green" stroke-width="0.24" points="611.78,-448.1 601.21,-447.45 609.07,-454.55 611.78,-448.1"/>
</g>
<!-- 615&#45;&gt;2329 -->
<g id="edge20" class="edge">
<title>615&#45;&gt;2329</title>
<path fill="none" stroke="red" stroke-width="0.71" d="M973.07,-524.72C952.75,-513.08 923.17,-493.15 906,-467.85 865.16,-407.67 867.63,-318.53 873.22,-268.43"/>
<polygon fill="red" stroke="red" stroke-width="0.71" points="876.71,-268.7 874.44,-258.35 869.76,-267.86 876.71,-268.7"/>
</g>
<!-- 615&#45;&gt;23328 -->
<g id="edge75" class="edge">
<title>615&#45;&gt;23328</title>
<path fill="none" stroke="red" stroke-width="0.17" d="M988.19,-513.29C984.95,-502.42 980.96,-489.07 977.22,-476.53"/>
<polygon fill="red" stroke="red" stroke-width="0.17" points="980.5,-475.29 974.28,-466.71 973.79,-477.29 980.5,-475.29"/>
</g>
<!-- 615&#45;&gt;1069 -->
<g id="edge13" class="edge">
<title>615&#45;&gt;1069</title>
<path fill="none" stroke="green" stroke-width="0.14" d="M1006.13,-514.86C1051.87,-427.69 1223.46,-101.39 1233,-93.98 1297.51,-43.87 1396.25,-32.49 1450.65,-30.22"/>
<polygon fill="green" stroke="green" stroke-width="0.14" points="1451.03,-33.71 1460.91,-29.88 1450.8,-26.71 1451.03,-33.71"/>
</g>
<!-- 615&#45;&gt;1971 -->
<g id="edge19" class="edge">
<title>615&#45;&gt;1971</title>
<path fill="none" stroke="green" stroke-width="0.18" stroke-dasharray="1,5" d="M970.92,-530.72C928.41,-520.86 837.69,-498.06 765,-467.85 743.28,-458.83 614.42,-387.13 551.94,-352.18"/>
<polygon fill="green" stroke="green" stroke-width="0.18" points="553.3,-348.93 542.86,-347.1 549.88,-355.04 553.3,-348.93"/>
</g>
<!-- 615&#45;&gt;22487 -->
<g id="edge69" class="edge">
<title>615&#45;&gt;22487</title>
<path fill="none" stroke="green" stroke-width="0.24" stroke-dasharray="1,5" d="M974.3,-523.28C957.07,-511.32 933.7,-491.75 923,-467.85 910.03,-438.89 909.68,-402.79 912.22,-375.26"/>
<polygon fill="green" stroke="green" stroke-width="0.24" points="915.72,-375.48 913.32,-365.16 908.76,-374.72 915.72,-375.48"/>
</g>
<!-- 2410 -->
<g id="node34" class="node">
<title>2410</title>
<ellipse fill="white" stroke="black" cx="1387" cy="-434.62" rx="28.98" ry="28.98"/>
<text text-anchor="middle" x="1387" y="-432.42" font-family="Times,serif" font-size="9.00">2410</text>
</g>
<!-- 615&#45;&gt;2410 -->
<g id="edge23" class="edge">
<title>615&#45;&gt;2410</title>
<path fill="none" stroke="green" stroke-width="0.98" d="M1016.98,-525.47C1032.57,-518.36 1054.15,-509.33 1074,-503.85 1176.71,-475.53 1208.49,-496.88 1311,-467.85 1324.74,-463.97 1339.29,-458.22 1351.94,-452.66"/>
<polygon fill="green" stroke="green" stroke-width="0.98" points="1353.54,-455.78 1361.21,-448.47 1350.65,-449.4 1353.54,-455.78"/>
</g>
<!-- 22264 -->
<g id="node40" class="node">
<title>22264</title>
<ellipse fill="white" stroke="black" cx="1467" cy="-434.62" rx="33.47" ry="33.47"/>
<text text-anchor="middle" x="1467" y="-432.42" font-family="Times,serif" font-size="9.00">22264</text>
</g>
<!-- 615&#45;&gt;22264 -->
<g id="edge67" class="edge">
<title>615&#45;&gt;22264</title>
<path fill="none" stroke="red" stroke-width="0.27" d="M1016.9,-525.17C1032.45,-517.92 1054.02,-508.85 1074,-503.85 1226.14,-465.85 1279.28,-525.79 1425,-467.85 1428.07,-466.63 1431.12,-465.12 1434.07,-463.41"/>
<polygon fill="red" stroke="red" stroke-width="0.27" points="1436.15,-466.24 1442.63,-457.85 1432.34,-460.37 1436.15,-466.24"/>
</g>
<!-- 2410&#45;&gt;21413 -->
<g id="edge61" class="edge">
<title>2410&#45;&gt;21413</title>
<path fill="none" stroke="green" stroke-width="0.18" d="M1397.93,-407.49C1402.37,-396.86 1407.6,-384.34 1412.49,-372.64"/>
<polygon fill="green" stroke="green" stroke-width="0.18" points="1415.87,-373.64 1416.5,-363.07 1409.41,-370.94 1415.87,-373.64"/>
</g>
<!-- 2410&#45;&gt;1069 -->
<g id="edge24" class="edge">
<title>2410&#45;&gt;1069</title>
<path fill="none" stroke="red" stroke-width="0.39" stroke-dasharray="1,5" d="M1408.58,-415.06C1413.91,-410.55 1419.63,-405.76 1425,-401.39 1445.12,-384.99 1458.97,-388.39 1471,-365.39 1497.48,-314.73 1494.55,-144.99 1491.72,-68.24"/>
<polygon fill="red" stroke="red" stroke-width="0.39" points="1495.21,-67.91 1491.33,-58.05 1488.22,-68.18 1495.21,-67.91"/>
</g>
<!-- 2410&#45;&gt;6235 -->
<g id="edge34" class="edge">
<title>2410&#45;&gt;6235</title>
<path fill="none" stroke="green" stroke-width="0.42" stroke-dasharray="1,5" d="M1382.21,-405.92C1375.49,-360.96 1366.25,-269.74 1387,-196.45 1390.74,-183.25 1397.83,-170.09 1405.14,-158.9"/>
<polygon fill="green" stroke="green" stroke-width="0.42" points="1408.21,-160.61 1410.98,-150.39 1402.44,-156.65 1408.21,-160.61"/>
</g>
<!-- 19435&#45;&gt;0 -->
<g id="edge56" class="edge">
<title>19435&#45;&gt;0</title>
<path fill="none" stroke="green" stroke-width="0.31" d="M777.83,-200.97C787.58,-184.9 799.69,-164.96 808.76,-150.02"/>
<polygon fill="green" stroke="green" stroke-width="0.31" points="811.77,-151.81 813.97,-141.45 805.79,-148.18 811.77,-151.81"/>
</g>
<!-- 23916&#45;&gt;1069 -->
<g id="edge81" class="edge">
<title>23916&#45;&gt;1069</title>
<path fill="none" stroke="red" stroke-width="0.2" d="M1897.66,-794.31C1894.11,-757.26 1889,-694.59 1889,-640.56 1889,-640.56 1889,-640.56 1889,-228.68 1889,-166.83 1899.46,-135.93 1854,-93.98 1807.09,-50.69 1613.18,-36.04 1529.14,-31.66"/>
<polygon fill="red" stroke="red" stroke-width="0.2" points="1529.14,-28.15 1518.98,-31.15 1528.79,-35.14 1529.14,-28.15"/>
</g>
<!-- 18928&#45;&gt;4291 -->
<g id="edge54" class="edge">
<title>18928&#45;&gt;4291</title>
<path fill="none" stroke="green" stroke-width="0.33" d="M99,-298.81C99,-289.37 99,-278.97 99,-269.19"/>
<polygon fill="green" stroke="green" stroke-width="0.33" points="102.5,-268.9 99,-258.9 95.5,-268.9 102.5,-268.9"/>
</g>
<!-- 17393&#45;&gt;0 -->
<g id="edge44" class="edge">
<title>17393&#45;&gt;0</title>
<path fill="none" stroke="green" stroke-width="0.14" stroke-dasharray="1,5" d="M1037.42,-298.89C1032.49,-268.82 1020.91,-224.52 994,-196.45 954.13,-154.88 885.74,-138.07 848.33,-131.73"/>
<polygon fill="green" stroke="green" stroke-width="0.14" points="848.64,-128.23 838.22,-130.14 847.55,-135.15 848.64,-128.23"/>
</g>
<!-- 18161&#45;&gt;5460 -->
<g id="edge47" class="edge">
<title>18161&#45;&gt;5460</title>
<path fill="none" stroke="green" stroke-width="0.64" d="M1605.83,-200.97C1613.34,-188.6 1622.24,-173.94 1630.07,-161.03"/>
<polygon fill="green" stroke="green" stroke-width="0.64" points="1633.1,-162.79 1635.3,-152.43 1627.12,-159.16 1633.1,-162.79"/>
</g>
<!-- 22264&#45;&gt;1069 -->
<g id="edge68" class="edge">
<title>22264&#45;&gt;1069</title>
<path fill="none" stroke="red" stroke-width="0.25" d="M1485.62,-406.7C1492.88,-394.64 1500.32,-379.89 1504,-365.39 1533.66,-248.47 1516.97,-213.91 1504,-93.98 1503.05,-85.21 1501.39,-75.87 1499.54,-67.12"/>
<polygon fill="red" stroke="red" stroke-width="0.25" points="1502.91,-66.17 1497.3,-57.18 1496.08,-67.71 1502.91,-66.17"/>
</g>
<!-- 22264&#45;&gt;22744 -->
<g id="edge82" class="edge">
<title>22264&#45;&gt;22744</title>
<path fill="none" stroke="green" stroke-width="0.31" d="M1491.69,-412.11C1497.13,-408.12 1503.06,-404.29 1509,-401.39 1565.94,-373.54 1588.85,-390.62 1647,-365.39 1652.16,-363.15 1657.41,-360.42 1662.47,-357.52"/>
<polygon fill="green" stroke="green" stroke-width="0.31" points="1664.58,-360.34 1671.33,-352.17 1660.96,-354.35 1664.58,-360.34"/>
</g>
<!-- 23034&#45;&gt;1971 -->
<g id="edge74" class="edge">
<title>23034&#45;&gt;1971</title>
<path fill="none" stroke="red" stroke-width="0.56" d="M640.04,-503.68C638.64,-474.73 632.91,-432.25 613,-401.39 598.52,-378.94 573.84,-361.55 553.27,-349.94"/>
<polygon fill="red" stroke="red" stroke-width="0.56" points="554.91,-346.85 544.45,-345.17 551.58,-353.01 554.91,-346.85"/>
</g>
<!-- 23034&#45;&gt;22487 -->
<g id="edge86" class="edge">
<title>23034&#45;&gt;22487</title>
<path fill="none" stroke="red" stroke-width="0.4" d="M672.3,-528.27C708.2,-518.45 766.71,-499.01 809,-467.85 845.4,-441.05 876.85,-399.52 896.68,-369.66"/>
<polygon fill="red" stroke="red" stroke-width="0.4" points="899.68,-371.47 902.21,-361.19 893.82,-367.65 899.68,-371.47"/>
</g>
<!-- 21630&#45;&gt;6984 -->
<g id="edge64" class="edge">
<title>21630&#45;&gt;6984</title>
<path fill="none" stroke="green" stroke-width="0.18" d="M1649.1,-405.1C1642.44,-393.15 1634.65,-379.17 1627.71,-366.73"/>
<polygon fill="green" stroke="green" stroke-width="0.18" points="1630.77,-365.02 1622.84,-357.99 1624.65,-368.43 1630.77,-365.02"/>
</g>
<!-- 2687&#45;&gt;0 -->
<g id="edge26" class="edge">
<title>2687&#45;&gt;0</title>
<path fill="none" stroke="red" stroke-width="0.5" stroke-dasharray="1,5" d="M1271.83,-405.39C1268.89,-348.98 1259.2,-225.25 1230,-196.45 1175.69,-142.87 930.5,-131.23 848.68,-128.82"/>
<polygon fill="red" stroke="red" stroke-width="0.5" points="848.77,-125.32 838.68,-128.55 848.58,-132.32 848.77,-125.32"/>
</g>
<!-- 2687&#45;&gt;6984 -->
<g id="edge85" class="edge">
<title>2687&#45;&gt;6984</title>
<path fill="none" stroke="red" stroke-width="0.22" d="M1299.02,-421.48C1313.53,-414.99 1332.05,-407.17 1349,-401.39 1426.27,-375.02 1519.35,-352.82 1570.55,-341.41"/>
<polygon fill="red" stroke="red" stroke-width="0.22" points="1571.51,-344.78 1580.52,-339.21 1570,-337.95 1571.51,-344.78"/>
</g>
<!-- &#45;10 -->
<g id="node44" class="node">
<title>&#45;10</title>
<ellipse fill="none" stroke="black" cx="292" cy="-537.09" rx="22.76" ry="22.76"/>
<text text-anchor="middle" x="292" y="-534.89" font-family="Times,serif" font-size="9.00">&#45;10</text>
</g>
<!-- &#45;10&#45;&gt;17124 -->
<g id="edge83" class="edge">
<title>&#45;10&#45;&gt;17124</title>
<path fill="none" stroke="green" stroke-width="0.59" d="M293.08,-514.29C293.61,-503.74 294.26,-490.69 294.88,-478.28"/>
<polygon fill="green" stroke="green" stroke-width="0.59" points="298.38,-478.23 295.39,-468.07 291.39,-477.88 298.38,-478.23"/>
</g>
</g>
</svg>
